<?xml version="1.0" encoding="UTF-8" standalone="no"?>
<!-- Created with Inkscape (http://www.inkscape.org/) -->

<svg
   xmlns:dc="http://purl.org/dc/elements/1.1/"
   xmlns:cc="http://creativecommons.org/ns#"
   xmlns:rdf="http://www.w3.org/1999/02/22-rdf-syntax-ns#"
   xmlns:svg="http://www.w3.org/2000/svg"
   xmlns="http://www.w3.org/2000/svg"
   xmlns:sodipodi="http://sodipodi.sourceforge.net/DTD/sodipodi-0.dtd"
   xmlns:inkscape="http://www.inkscape.org/namespaces/inkscape"
   version="1.1"
   id="svg27221"
   xml:space="preserve"
   width="800"
   height="800"
   viewBox="0 0 800 800"
   sodipodi:docname="Catalonia-paint-flag-2-publicdomainvectors.org.svg"
   inkscape:version="0.92.4 (5da689c313, 2019-01-14)"><metadata
     id="metadata27227"><rdf:RDF><cc:Work
         rdf:about=""><dc:format>image/svg+xml</dc:format><dc:type
           rdf:resource="http://purl.org/dc/dcmitype/StillImage" /><dc:title></dc:title></cc:Work></rdf:RDF></metadata><defs
     id="defs27225"><clipPath
       clipPathUnits="userSpaceOnUse"
       id="clipPath27237"><path
         d="M 0,600 H 600 V 0 H 0 Z"
         id="path27235"
         inkscape:connector-curvature="0" /></clipPath></defs><sodipodi:namedview
     pagecolor="#ffffff"
     bordercolor="#666666"
     borderopacity="1"
     objecttolerance="10"
     gridtolerance="10"
     guidetolerance="10"
     inkscape:pageopacity="0"
     inkscape:pageshadow="2"
     inkscape:window-width="797"
     inkscape:window-height="480"
     id="namedview27223"
     showgrid="false"
     inkscape:zoom="0.295"
     inkscape:cx="400"
     inkscape:cy="400"
     inkscape:window-x="0"
     inkscape:window-y="0"
     inkscape:window-maximized="0"
     inkscape:current-layer="g27229" /><g
     id="g27229"
     inkscape:groupmode="layer"
     inkscape:label="Catalonia-paint-flag-2-publicdomainvectors.org"
     transform="matrix(1.3333333,0,0,-1.3333333,0,800)"><g
       id="g27231"><g
         id="g27233"
         clip-path="url(#clipPath27237)"><path
           d="m 567.412,448.884 c -4.724,-0.515 -9.4,-0.891 -13.239,0 z M 32.754,460.803 c 1.328,-3.344 2.318,-7.761 3.056,-11.919 h 1.297 c -0.024,-1.949 -1.312,-5.485 -1.09,-7.344 0.387,-3.011 2.348,-5.776 2.184,-8.715 -0.061,-1.321 -2.287,-1.134 -2.184,-2.194 0.015,-0.078 2.011,0.092 2.184,0 2.377,-1.062 -1.069,-2.52 -1.084,-2.174 0.134,-2.199 1.939,-4.639 2.176,-7.628 0.122,-1.488 -1.302,-3.743 -1.092,-5.451 0.009,-0.07 0.128,-0.18 0.303,-0.317 h 530.36 c 0.369,0.895 0.108,1.897 -0.605,2.494 0.463,-1.806 -4.072,0.096 -4.367,1.087 1.629,0.2 4.023,-0.388 4.367,1.091 -3.431,-0.517 -4.456,1.356 -5.454,3.273 1.78,-0.796 4.736,2.165 2.176,2.171 0.475,-1.799 -4.068,0.102 -4.367,1.099 2.842,0.47 8.387,-0.143 12.002,2.181 6.668,2.003 -6.663,-0.205 -6.546,2.174 3.536,-0.619 5.078,0.754 7.635,1.097 7.354,-0.359 2.432,1.941 -2.178,1.097 -4.918,-1.659 -16.949,-1.936 -21.809,0 6.655,2.036 17.289,0.954 21.809,2.172 -9.18,1.805 5.164,0.883 4.358,4.365 -2.609,3.378 -5.78,-1.093 -8.725,-1.087 -3.734,0.007 -7.058,2.541 -10.904,3.265 5.997,0.193 12.696,-0.331 15.271,3.28 -0.217,3.414 -6.365,0.909 -7.635,3.267 6.202,0.71 15.246,-1.436 19.625,1.102 -2.325,0.604 -5.05,0.653 -7.949,0.484 0.103,0.077 0.218,0.144 0.317,0.23 h -3.269 c 2.907,2.811 -2.511,1.145 -1.089,5.448 2.163,-0.009 1.383,-2.97 4.358,-2.178 0.485,4.12 -5.691,1.573 -6.536,4.365 4.293,-0.303 7.57,0.416 8.723,3.265 -3.587,0.561 -9.692,-1.403 -10.778,1.659 H 34.449 c -0.408,-0.711 -0.985,-1.253 -1.695,-1.659"
           style="fill:#f7f00f;fill-opacity:1;fill-rule:nonzero;stroke:none"
           id="path27239"
           inkscape:connector-curvature="0" /><path
           d="m 64.38,509.886 c -0.009,-0.007 -0.015,-0.016 -0.024,-0.023 h 0.04 c -0.005,0.007 -0.01,0.016 -0.016,0.023"
           style="fill:#f7f00f;fill-opacity:1;fill-rule:nonzero;stroke:none"
           id="path27241"
           inkscape:connector-curvature="0" /><path
           d="m 70.926,510.973 c 0.68,-0.16 1.049,-0.566 1.222,-1.11 h 1.362 c -0.578,1.792 -1.483,2.945 -2.584,1.11"
           style="fill:#f7f00f;fill-opacity:1;fill-rule:nonzero;stroke:none"
           id="path27243"
           inkscape:connector-curvature="0" /><path
           d="m 109.1,514.247 c -3.305,-0.264 -7.954,-6.021 -9.824,-1.091 0.755,2.159 6.508,-0.676 5.457,3.268 -4.291,1.243 -7.578,-3.286 -8.725,1.097 0.346,2.56 3.377,2.437 4.37,4.366 -5.778,-1.292 -4.932,-2.698 -7.65,1.091 -2.704,3.779 -4.907,10.195 -8.72,7.635 2.404,-0.939 4.451,-7.842 2.188,-9.815 -2.243,4.669 -3.933,9.872 -8.724,11.991 -0.331,-2.14 1.466,-2.165 2.179,-3.267 0.883,-1.385 1.441,-3.978 2.179,-5.458 1.945,-3.9 7.813,-10.678 5.456,-14.178 -0.488,5.493 -3.59,6.973 -5.456,9.819 -2.417,3.662 -2.902,8.427 -6.541,10.908 2.784,-6.952 4.567,-10.685 7.627,-17.457 -0.186,0.424 0.681,1.268 1.092,0 0.072,-0.214 0.925,-1.817 1.544,-3.293 h 17.463 c 1.465,2.024 5.49,1.488 6.085,4.384"
           style="fill:#f7f00f;fill-opacity:1;fill-rule:nonzero;stroke:none"
           id="path27245"
           inkscape:connector-curvature="0" /><path
           d="m 56.745,515.334 c -0.688,1.243 -2.689,2.275 -3.274,3.28 0.521,-0.904 1.215,4.003 -1.086,1.091 3.117,-1.269 -1.763,-1.269 -2.178,0 -0.981,-3.621 6.053,-4.735 3.264,-6.549 0.08,2.687 -2.539,1.673 -4.362,3.268 -3.111,2.748 -5.558,8.93 -8.724,7.64 3.703,-4.29 8.457,-7.538 9.822,-14.178 -2.286,0.307 -2.479,3.489 -3.282,4.361 -2.005,2.215 -1.811,1.279 -4.362,2.177 -0.084,-4.001 4.07,-3.769 5.204,-6.561 h 10.679 c -0.701,1.869 -0.933,4.107 -1.701,5.471"
           style="fill:#f7f00f;fill-opacity:1;fill-rule:nonzero;stroke:none"
           id="path27247"
           inkscape:connector-curvature="0" /><path
           d="m 73.11,517.521 c -0.942,1.92 -1.506,4.255 -2.184,5.457 -3.575,6.25 0.946,-6.508 -1.095,-7.644 1.57,-2.407 2.66,1.373 3.279,-1.087 -0.159,-1.422 0.901,-2.927 1.646,-4.384 h 1.547 c -1.009,2.594 -2.007,5.223 -3.193,7.658"
           style="fill:#f7f00f;fill-opacity:1;fill-rule:nonzero;stroke:none"
           id="path27249"
           inkscape:connector-curvature="0" /><path
           d="m 519.175,536.055 c -8.302,3.781 -16.965,1.53 -26.172,1.094 -30.462,-1.414 -63.763,0.617 -91.615,2.184 8.726,0.718 20.34,-1.445 27.261,1.098 -1.906,0.991 -5.435,0.363 -6.537,2.171 6.845,3.702 20.463,0.621 28.349,3.273 -3.708,1.485 -8.046,0.012 -9.813,0 -2.244,-0.012 -5.754,0.754 -7.63,1.088 -18.029,3.23 -35.567,3.273 -55.625,3.273 -8.673,0 -18.179,0.864 -26.172,0 -3.15,-0.34 -6.608,-1.92 -9.824,-2.177 -7.579,-0.616 -15.437,0.826 -22.904,0 -4.57,-0.512 -8.417,-2.762 -13.074,-3.267 -10.022,-1.097 -20.631,0.229 -30.551,-1.104 -2.325,-0.3 -4.209,-1.766 -6.539,-2.177 -4.387,-0.762 -9.799,0.206 -12.005,0 -3.573,-0.318 -7.479,-1.889 -10.901,-2.178 -6.098,-0.516 -12.579,0.564 -18.533,0 -5.011,-0.479 -10.891,-2.592 -16.375,-3.278 -13.654,-1.691 -27.427,-6.252 -38.16,-5.442 -0.192,-6.054 -9.133,0.97 -8.732,-1.091 0.674,-0.064 1.303,-0.174 1.098,-1.092 -0.291,-1.542 -2.395,-1.248 -3.273,-2.181 -5.133,-0.635 -7.698,-1.174 -10.908,-2.185 -3.459,-1.086 -7.928,-3.528 -9.819,-4.359 -2.899,-1.281 -6.592,-2.078 -9.804,-3.281 -5.4,-2.013 -10.76,-4.69 -15.564,-6.561 h 397.153 c 1.34,0.161 2.534,0.469 3.395,1.11 -3.426,-1.249 -2.649,1.724 -4.363,2.183 -1.807,-1.907 -4.676,0.763 -7.634,1.091 -1.332,0.147 -1.538,-1.191 -3.268,-1.091 -5.419,0.322 -10.364,2.001 -13.092,2.178 0.821,2.468 6.11,0.432 8.725,1.09 1.529,-0.083 4.176,0.242 2.183,1.097 -1.811,-0.01 -3.639,0 -5.449,0 -1.102,0.856 -2.731,0.676 -4.37,3.277 5.081,1.178 9.008,-1.903 10.909,0 0.178,0.162 -8.852,2.186 -9.808,1.089 -1.403,0.058 -1.511,1.391 -3.28,1.091 -2.842,-2.674 -2.406,0.223 -3.265,1.086 -2.313,2.307 -11.285,-2.394 -10.916,2.185 6.491,0.051 13.979,-0.895 16.36,3.273 2.228,-0.993 7.16,-2.189 8.724,1.091 -3.598,-1.544 -2.718,2.22 -4.354,2.176 0.396,0.013 -1.411,-4.17 -4.37,-2.176 0.908,3.497 0.936,2.253 -1.089,4.36 11.542,0.251 24.377,-0.597 31.631,1.082"
           style="fill:#f7f00f;fill-opacity:1;fill-rule:nonzero;stroke:none"
           id="path27251"
           inkscape:connector-curvature="0" /><path
           d="m 112.368,508.79 c -2.825,-0.903 -7.574,-4.619 -9.814,0 0.086,0.426 0.246,0.776 0.461,1.073 H 85.552 c 0.365,-0.869 0.649,-1.694 0.644,-2.163 -0.014,-0.757 -1.277,-1.721 -1.103,-2.184 1.103,-2.818 7.29,-4.311 3.282,-7.628 -2.461,0.453 0.167,5.978 -3.282,5.457 -0.959,-3.252 3.407,-6.649 1.103,-7.641 -2.218,3.61 -2.792,8.844 -6.545,10.909 -1.501,-2.487 2.812,-4.107 0,-4.365 -1.271,2.336 -2.315,4.958 -3.348,7.615 h -1.547 c 0.796,-1.555 1.232,-3.056 -0.557,-4.347 0.029,1.05 -0.224,2.906 -0.689,4.347 h -1.362 c 0.718,-2.245 -1.926,-6.868 -0.133,-6.518 0,0.603 0.877,1.238 1.095,0 -0.184,-3.245 2.525,-7.311 1.089,-12.005 -1.371,4.622 -3.298,11.435 -6.546,10.908 -0.739,2.888 -1.717,5.543 -3.257,7.615 h -0.04 c -3.693,-3.146 3.512,-8.196 0.024,-10.88 0.629,3.759 -3.6,6.508 -5.449,9.807 -0.187,0.336 -0.345,0.697 -0.485,1.073 H 47.767 c 0.232,-0.573 0.341,-1.271 0.255,-2.163 0.325,-2.512 -3.151,-1.204 -3.274,-3.264 1.391,-1.596 4.921,-6.612 3.274,-7.637 -3.002,2.081 -6.508,3.683 -7.637,7.637 -6.12,0.189 3.793,-3.679 0,-4.372 -0.01,1.103 -1.911,1.38 -2.184,0 3.288,-3.272 9.913,-8.966 7.645,-14.166 -0.718,3.651 -4.179,4.547 -5.461,7.63 0.719,-7.296 6.338,-15.45 4.363,-21.818 -1.434,4.278 -2.17,11.696 -5.455,10.915 0.302,1.391 1.092,1.507 1.092,3.273 0,6.239 -1.485,-2.505 -1.092,-2.184 -0.819,-0.686 -5.286,4.392 -5.451,3.266 0.141,-3.902 6.112,-7.642 2.175,-11.996 0.218,3.127 0.144,5.943 -3.263,5.457 -1.338,-2.64 2.585,-2.281 2.177,-4.362 -0.072,-0.379 -2.642,-1.135 -2.177,-2.191 0.286,-0.64 3.996,-0.307 3.263,-2.178 -2.26,-0.608 -2.304,-1.703 -1.086,-3.274 -1.326,0.347 -3.756,-3.15 -1.089,-3.27 0.244,0.852 0.027,2.158 1.089,2.184 0.385,-2.173 0.17,-3.749 -0.482,-4.888 h 532.845 c -0.059,0.163 -0.106,0.335 -0.134,0.526 8.249,0.482 14.3,3.148 19.637,6.538 -2.896,-1.295 -6.061,0.206 -9.814,0 -11.328,-0.602 -26.418,-3.714 -30.536,4.362 2.088,0.904 10.834,0.704 8.72,2.191 -6.686,1.557 -13.032,-2.926 -17.451,0 4.463,-1.318 7.969,2.305 12.002,3.272 2.275,0.54 4.132,-0.404 6.538,0 1.604,0.264 3.89,1.847 5.445,2.181 2.552,0.53 7.449,-2.099 7.648,2.182 -8.928,-3.061 -17.71,0.642 -26.185,1.088 -3.342,0.175 -7.209,-1.525 -10.898,-1.088 -2.134,0.243 -4.683,0.981 -6.545,2.184 -2.167,2.511 0.272,1.199 1.089,3.266 -4.922,-0.213 -13.102,-2.865 -17.45,0 5.655,1.781 11.286,-1.317 16.361,2.176 -3.447,2.328 -10.265,-3.661 -5.46,2.188 -3.66,0.678 -10.125,-1.404 -11.997,1.094 1.819,0.121 9.885,-0.602 6.546,1.082 -4.771,0.68 -8.723,2.184 -13.092,3.279 4.33,0.754 12.09,-1.905 13.092,2.172 -6.346,0.197 -12.055,-2.037 -17.453,0 3.304,1.442 9.352,0.114 12.003,2.19 -1.936,0.243 -5.462,-1.11 -4.362,2.171 3.645,-0.26 6.872,-2.337 8.726,1.097 -3.71,2.652 -7.687,-1.348 -10.91,2.177 2.447,1.146 6.493,0.687 9.692,1.073 H 115.353 c -1.022,-0.398 -2.02,-0.761 -2.985,-1.073"
           style="fill:#de1d25;fill-opacity:1;fill-rule:nonzero;stroke:none"
           id="path27253"
           inkscape:connector-curvature="0" /><path
           d="m 41.477,364.112 c 4.161,-2.37 3.419,1.003 5.448,3.279 0.751,-7.041 -0.71,-12.604 3.282,-13.097 -4.479,-3.133 -0.404,-10.716 0,-16.348 0.056,-1.01 -1.09,-2.022 -1.098,-2.19 -0.064,-2.617 3.165,-6.602 0,-7.633 -1.106,4.471 -1.914,9.434 -2.184,11.996 -0.549,5.29 0.932,13.353 -4.362,14.175 0.603,-10.443 2.323,-23.672 2.398,-34.035 h 505.843 c 0,0.076 -0.005,0.148 0,0.227 1.177,0.558 2.076,0.285 2.817,-0.227 h 1.941 c -2.927,1.649 -5.067,4.076 -6.938,6.773 2.536,0.362 4.701,1.115 5.456,3.267 -4.535,0.198 -6.001,-1.884 -8.731,1.096 -0.793,2.183 2.093,2.113 2.185,3.274 -0.027,-0.288 -2.082,0.601 -2.185,1.087 -0.416,2.007 1.743,4.971 2.185,7.629 -4.315,-1.436 -1.653,11.343 -1.087,12.011 0.615,0.716 3.59,-0.627 3.271,1.081 -1.874,-0.065 -2.797,0.844 -3.271,2.176 1.783,1.971 1.985,5.528 2.266,9.006 H 42.608 c -0.414,-0.959 -1.021,-2.142 -1.131,-3.547"
           style="fill:#f7f00f;fill-opacity:1;fill-rule:nonzero;stroke:none"
           id="path27255"
           inkscape:connector-curvature="0" /><path
           d="m 40.385,413.186 c -0.01,0.058 -1.426,-1.741 -1.092,-3.266 1.735,-7.794 2.834,-18.361 2.184,-28.36 -2.062,0.125 -0.763,3.606 -3.276,3.271 -0.017,-4.9 4.046,-7.908 0,-10.908 3.634,0.756 1.753,-2.248 1.092,-3.265 4.17,-0.317 4.04,-1.316 3.315,-2.999 h 506.105 c 0.371,4.598 0.882,9.059 5.367,9.543 -1.205,5.932 2.3,7.143 4.355,9.809 -1.877,0.435 -2.792,-1.613 -3.268,0 6.581,2.971 14.504,-1.629 19.628,3.27 -7.135,0.592 -12.416,-0.663 -18.539,-1.089 -1.861,2.186 -1.589,8.847 1.09,9.827 9.152,-0.193 14.765,2.712 21.817,3.268 6.372,0.492 12.066,-0.941 14.178,2.183 -8.028,0.845 -10.707,-2.687 -16.358,0 2.05,0.569 8.873,1.907 6.534,3.267 -1.28,-0.162 -2.47,-1.936 -3.268,0 -0.242,3.932 10.557,2.466 7.639,5.449 -4.641,-0.243 -14.945,-2.221 -22.907,0 2.276,0.014 3.472,0.877 3.883,1.875 H 38.504 c 0.567,-0.447 1.746,-1.195 1.881,-1.875"
           style="fill:#de1d25;fill-opacity:1;fill-rule:nonzero;stroke:none"
           id="path27257"
           inkscape:connector-curvature="0" /><path
           d="m 91.653,224.952 c -3.676,-0.699 -10.133,1.392 -12.002,-1.084 7.595,-2.174 14.449,2.086 19.625,-3.28 -1.936,-0.25 -5.46,1.095 -4.355,-2.186 21.327,-4.111 40.803,-10.093 64.343,-11.995 0.154,-1.45 -4.434,-3.287 -1.09,-4.355 0.642,5.719 21.042,2.976 21.818,2.168 0.665,-0.689 -2.013,-2.106 0,-2.168 0.524,1.287 1.151,2.464 2.183,3.259 4.577,-1.057 10.752,0 14.173,0 1.154,0 2.853,-1.198 3.268,-1.091 0.347,0.098 0.716,3.966 3.279,2.187 -0.409,-3.543 -3.831,-2.217 -5.457,-3.267 -0.896,-0.584 0.346,-1.813 -1.09,-2.184 0.412,0.102 -0.564,2.426 -2.178,2.184 -1.421,-0.228 -1.025,-1.771 -2.184,-2.184 -0.312,2.238 -2.912,2.171 -4.361,3.264 -0.437,-1.872 1.613,-2.799 0,-3.264 -7.326,0.337 -11.662,1.046 -18.542,1.096 -1.904,0.004 -3.523,-1.327 -5.46,-1.096 -1.425,0.166 -1.477,1.151 -3.264,1.096 -1.974,-0.08 -2.511,-1.309 -4.368,-1.096 -0.244,0.026 -2.818,2.068 -3.266,2.184 -5.912,1.427 -11.804,0.154 -17.454,1.08 -1.693,0.281 -2.842,1.79 -4.354,2.187 -1.711,0.447 -3.741,-0.351 -5.46,0 -1.896,0.382 -3.496,2.69 -5.456,3.272 -1.332,0.397 -2.996,-0.3 -4.355,0 -0.414,0.093 -2.701,2.006 -3.278,2.176 -3.979,1.16 -6.227,0.296 -9.814,1.097 -1.235,0.269 -2.433,2.071 -3.278,2.175 -1.987,0.266 -2.461,-1.02 -4.355,-1.084 -1.225,-0.047 -1.693,1.533 -2.193,0 5.137,-1.291 2.064,-3.169 0,-5.457 7.57,0.956 9.329,-4.449 15.271,-2.179 -2.115,-3.643 0.395,-0.591 3.28,-1.096 1.433,-0.245 2.215,-1.879 3.28,-2.171 1.639,-0.469 3.843,0.575 5.442,0 0.294,-0.116 0.73,-1.96 1.089,-2.184 3.6,-2.185 8.083,0.089 10.913,0 2.122,-0.083 5.754,-1.694 8.718,-2.185 8.378,-1.353 14.995,-1.672 21.808,-3.268 -6.095,0.967 -4.059,-1.107 -5.451,-3.271 -4.219,1.626 -15.453,1.947 -19.618,0 10.319,-1.01 28.504,-1.254 40.355,-6.551 -4.57,-0.221 -16.473,0.966 -8.732,-2.187 -3.536,-0.615 -5.488,0.335 -6.554,2.187 0.104,-0.348 -2.44,-3.397 -4.355,-2.187 -0.69,0.451 2.038,2.236 0,2.187 -0.569,-0.015 -1.282,-2.239 -3.27,-2.187 -3.906,0.122 -7.566,4.36 -11.998,2.187 1.288,-0.163 3.1,0.191 3.274,-1.084 -16.45,1.223 -34.042,5.125 -47.993,5.452 1.626,0.178 4.035,-0.392 4.367,1.094 -9.339,-0.61 -16.382,6.865 -23.992,4.36 6.026,-1.974 12.759,-3.24 18.535,-5.454 -1.933,-0.253 -5.459,1.098 -4.369,-2.195 2.884,-1.689 17.825,-4.294 17.459,-1.08 -2.226,-0.934 -6.019,1.719 -3.279,2.177 4.214,-3.003 9.238,-2.136 14.182,-3.27 0.322,-0.07 1.664,-2.074 2.189,-2.187 1.924,-0.376 4.407,0.61 6.535,0 1.487,-0.409 3.15,-2.777 4.369,-3.257 3.587,-1.449 6.416,-0.434 9.811,-1.092 2.651,1.468 0.678,2.173 2.186,3.264 2.748,0.41 4.827,-1.759 7.635,-2.172 4.025,-0.619 9.324,1.121 15.268,1.081 7.475,-0.039 16.838,-1.548 23.987,0 0.595,0.134 -0.188,2.077 1.1,2.176 5.6,0.493 15,-1.567 22.891,-1.085 8.368,0.528 12.472,1.42 16.359,-3.264 -2.004,-0.413 -4.058,-0.77 -6.148,-1.087 h 20.727 c 8.978,1.552 18.265,2.983 24.69,1.087 -0.803,0.233 -2.154,-0.961 -2.177,-1.087 h 1.224 c 1.645,0.319 2.944,1.617 4.218,0 h 94.909 c 1.206,1.031 3.171,1.123 4.345,2.179 2.785,2.47 5.928,6.931 7.641,8.714 1.511,1.582 3.332,2.127 4.358,3.281 1.292,1.436 1.933,3.797 3.272,5.452 1.381,1.695 3.079,2.68 4.362,4.368 3.689,4.814 7.234,9.873 9.816,14.171 1.929,3.205 3.755,5.911 4.802,9.234 H 90.975 c 0.226,-0.163 0.451,-0.329 0.678,-0.505"
           style="fill:#de1d25;fill-opacity:1;fill-rule:nonzero;stroke:none"
           id="path27259"
           inkscape:connector-curvature="0" /><path
           d="M 78.035,225.457 H 75.99 c 0.756,-0.33 1.46,-0.421 2.045,0"
           style="fill:#de1d25;fill-opacity:1;fill-rule:nonzero;stroke:none"
           id="path27261"
           inkscape:connector-curvature="0" /><path
           d="m 427.561,204.22 c -0.094,-1.377 1.198,-1.496 1.088,-3.264 -0.39,-6.472 -2.401,-14.628 -1.088,-20.719 0.179,-0.841 0.695,-1.494 1.183,-2.179 h 61.748 c 0.596,0.698 1.267,1.341 1.422,2.179 0.036,0.222 -1.75,0.799 -1.09,2.172 0.226,0.476 1.731,1.489 2.179,2.188 2.191,3.382 3.161,7.084 6.539,8.723 1.051,-5.763 -1.285,-11.086 -2.148,-15.262 h 2.052 c 0.888,3.505 1.125,7.663 3.368,9.796 1.188,-3.199 1.054,-6.538 0.466,-9.796 h 1.08 c 1.062,2.137 3.057,4.265 3.904,6.539 1.211,3.228 0.205,4.604 1.096,6.546 1.292,2.793 3.83,6.511 4.364,8.718 0.4,1.717 -0.431,3.749 0,5.45 0.108,0.434 2.042,2.672 2.177,3.275 0.709,3.129 0.109,6.68 1.094,9.816 0.102,0.305 2.051,0.647 2.18,1.092 0.696,2.565 0.706,4.306 0.729,5.963 h -89.353 c -0.482,-7.024 -2.514,-14.112 -2.99,-21.237"
           style="fill:#de1d25;fill-opacity:1;fill-rule:nonzero;stroke:none"
           id="path27263"
           inkscape:connector-curvature="0" /><path
           d="m 179.992,174.782 c -5.267,-0.326 -9.904,-2.438 -14.182,-1.094 0.839,0.243 2.151,0.026 2.176,1.094 -4.679,-2.817 -8.903,0.13 -11.995,-3.282 18.417,-0.501 39.397,1.685 61.07,3.282 4.164,0.303 11.116,0.651 16.359,1.085 4.357,0.363 9.416,1.297 14.579,2.191 h -20.727 c -14.974,-2.274 -31.889,-2.341 -47.28,-3.276"
           style="fill:#f7f00f;fill-opacity:1;fill-rule:nonzero;stroke:none"
           id="path27265"
           inkscape:connector-curvature="0" /><path
           d="m 275.964,178.043 c -2.787,-0.488 -5.021,-1.532 -6.546,-3.261 3.88,-0.926 6.532,3.16 7.634,-1.094 -5.267,-0.193 -7.443,-3.465 -10.909,-5.447 5.169,0.555 4.356,1.367 2.186,-2.193 3.1,0.191 4.546,1.995 7.635,2.193 0.005,-1.099 -0.886,-1.306 -1.096,-2.193 3.669,-0.116 6.732,3.169 8.722,2.193 0.337,-0.167 -1.14,-2.193 -1.082,-2.193 2.998,-0.149 3.701,0.742 7.635,1.094 -0.062,-1.396 -1.396,-1.509 -1.097,-3.266 3.882,-1.7 0.676,3.702 3.276,3.266 2.26,-0.654 7.166,1.346 7.64,-1.094 -3.095,0.911 -2.837,-1.536 -5.456,-1.087 -1.353,-3.524 3.528,-0.837 2.183,-4.365 -1.78,0.8 -4.753,-2.163 -2.183,-2.177 0.146,1.796 7.489,1.796 7.628,0 -3.011,1.435 -3.734,-4.316 -2.172,-1.091 3.184,-0.291 3.345,2.466 6.538,2.182 -0.331,-1.32 3.155,-3.762 3.273,-1.091 -5.795,1.82 6.453,2.172 9.807,2.177 -1.837,-3.797 -0.396,-3.812 2.191,-5.457 -1.833,-1.505 -7.24,-5.035 -5.457,-6.537 3.318,4.503 13.957,5.63 14.181,9.817 5.802,0.746 7.725,5.366 15.269,4.361 -0.161,-1.293 -1.946,-2.47 0,-3.27 3.083,3.895 8.371,5.557 10.901,7.632 3.064,2.5 5.847,4.758 8.725,6.546 2.688,1.66 3.733,2.886 5.456,4.355 0.006,0.005 0.012,0.009 0.017,0.015 h -94.909 c 0.003,-0.006 0.006,-0.01 0.01,-0.015"
           style="fill:#f7f00f;fill-opacity:1;fill-rule:nonzero;stroke:none"
           id="path27267"
           inkscape:connector-curvature="0" /><path
           d="m 429.744,175.867 c 0.426,-3.298 -1.227,-7.755 1.093,-10.906 -0.194,3.013 1.676,3.751 3.265,2.181 -0.909,-1.267 -1.436,-2.926 -1.084,-5.449 5.924,1.669 2.094,-4.988 2.178,-5.449 -0.019,0.049 1.973,-1.833 2.184,-2.184 3.471,-5.995 -2.026,-13.214 -1.1,-20.732 6.665,-0.845 3.917,7.729 5.457,11.997 1.1,1.198 4.689,5.359 2.179,6.557 0.336,-1.327 -3.146,-3.769 -3.268,-1.097 0.525,4.554 3.575,6.609 6.546,8.725 -2.204,0.888 0.683,5.75 1.089,7.632 -4.099,0.832 -0.747,-5.788 -5.457,-4.362 0.139,1.813 -3.531,6.937 1.09,6.548 -0.149,-1.294 -1.937,-2.473 0,-3.28 4.659,2.877 5.149,7.348 5.456,9.819 3.372,-3.011 4.2,-9.255 3.267,-11.991 -0.037,-0.136 -2.168,0.103 -2.178,0 -0.153,-2.611 1.333,-5.156 1.087,-7.632 -0.145,-1.55 -1.819,-2.295 -2.176,-4.362 -0.294,-1.778 0.229,-3.684 0,-5.457 4.278,1.496 3.214,6.818 5.455,9.819 0.695,0.912 2.265,0.97 3.067,1.902 -0.822,-0.809 -0.238,4.43 1.301,3.547 0.68,-1.864 3.295,-1.805 4.356,-3.274 -0.652,-1.635 -5.484,-4.553 -3.266,-5.449 1.627,1.278 3.075,2.735 4.357,4.358 1.25,-3.421 -1.711,-2.654 -2.177,-4.358 3.317,-3.42 4.704,6.289 8.723,2.169 0.318,6.958 3.469,11.082 9.825,12.003 1.194,3.164 1.342,7.373 5.441,7.64 -0.178,-2.811 -4.624,-6.907 -2.176,-8.734 1.832,3.866 3.907,7.615 5.456,10.904 0.188,0.402 0.463,0.76 0.758,1.106 h -61.748 c 0.454,-0.641 0.887,-1.31 1,-2.191"
           style="fill:#f7f00f;fill-opacity:1;fill-rule:nonzero;stroke:none"
           id="path27269"
           inkscape:connector-curvature="0" /><path
           d="m 497.357,173.688 c 1.062,1.089 1.654,2.651 2.089,4.37 h -2.052 c -0.341,-1.651 -0.455,-3.12 -0.037,-4.37"
           style="fill:#f7f00f;fill-opacity:1;fill-rule:nonzero;stroke:none"
           id="path27271"
           inkscape:connector-curvature="0" /><path
           d="m 500.636,162.78 c 2.485,4.419 1.703,9.212 3.268,14.172 0.116,0.369 0.274,0.737 0.456,1.106 h -1.08 c -1.032,-5.729 -3.467,-11.212 -2.644,-15.278"
           style="fill:#f7f00f;fill-opacity:1;fill-rule:nonzero;stroke:none"
           id="path27273"
           inkscape:connector-curvature="0" /><path
           d="m 270.513,178.043 c 0.43,-0.083 0.835,-0.063 1.223,0.015 h -1.224 c -0.002,-0.007 -0.004,-0.013 10e-4,-0.015"
           style="fill:#f7f00f;fill-opacity:1;fill-rule:nonzero;stroke:none"
           id="path27275"
           inkscape:connector-curvature="0" /><path
           d="m 44.748,313.94 c 0.058,2.045 -0.838,2.313 -2.185,1.101 0.065,1.39 1.396,1.502 1.1,3.267 -2.981,0.097 -2.206,-1.822 -4.37,0 2.082,-5.11 0.518,-9.945 1.092,-15.273 0.414,-3.85 2.844,-8.871 2.178,-11.992 -2.06,-9.659 -12.398,-8.525 -19.622,-14.18 -0.668,-2.738 1.737,-2.406 2.212,-4.006 h 529.023 c -0.006,3.036 -0.96,8.342 -4.458,6.185 1.785,0.793 4.739,-2.165 2.177,-2.179 -3.279,1.385 -3.754,4.373 -2.177,6.547 1.627,-2.37 5.457,-2.547 5.449,-6.547 5.632,1.228 6.521,-2.277 9.184,-4.006 h 0.542 c -1.15,4.879 -6.249,5.809 -8.637,9.458 1.449,2.668 4.06,-1.199 4.358,1.095 -4.81,3.905 -9.824,7.615 -14.167,11.988 5.98,1.623 4.777,-3.94 8.72,-4.355 2.906,-0.126 -3.008,4.275 -1.087,4.355 1.385,0.063 3.741,-7.731 7.621,-4.355 -5.263,3.081 -7.584,9.127 -11.983,13.079 1.275,1.254 3.854,1.243 6.538,1.097 -0.981,-3.284 2.57,-1.824 4.358,-3.281 2.836,-2.274 5.021,-7.961 7.645,-6.54 -4.456,3.98 -9.433,9.858 -14.179,11.992 -1.081,0.5 -3.755,3.727 -4.362,4.373 -1.267,1.326 -1.492,3.569 -3.271,4.363 3.888,0.558 6.633,-5.644 8.72,-3.275 -0.933,1.347 -7.026,3.02 -4.363,4.363 2.378,-1.305 6.344,-6.679 8.72,-4.363 -2.114,-0.128 -3.235,2.332 -4.357,3.275 -1.354,1.12 -4.359,1.77 -4.363,4.133 H 44.961 c 0.017,-2.262 -0.044,-4.388 -0.213,-6.319"
           style="fill:#de1d25;fill-opacity:1;fill-rule:nonzero;stroke:none"
           id="path27277"
           inkscape:connector-curvature="0" /><path
           d="m 557.346,319.392 c -0.628,0.256 -1.22,0.548 -1.784,0.867 h -1.941 c 1.578,-1.091 2.438,-3.272 3.725,-0.867"
           style="fill:#de1d25;fill-opacity:1;fill-rule:nonzero;stroke:none"
           id="path27279"
           inkscape:connector-curvature="0" /><path
           d="m 564.981,272.501 c -0.024,0.125 -0.061,0.236 -0.088,0.356 h -0.542 c 0.2,-0.128 0.409,-0.249 0.63,-0.356"
           style="fill:#f7f00f;fill-opacity:1;fill-rule:nonzero;stroke:none"
           id="path27281"
           inkscape:connector-curvature="0" /><path
           d="m 566.07,257.227 c 0.005,0.769 -0.126,1.37 -0.34,1.863 h -3.15 c 1.069,-0.715 2.207,-1.363 3.49,-1.863"
           style="fill:#f7f00f;fill-opacity:1;fill-rule:nonzero;stroke:none"
           id="path27283"
           inkscape:connector-curvature="0" /><path
           d="m 21.886,259.09 h -7.447 c -0.453,-0.305 -0.892,-0.572 -1.312,-0.77 2.596,-0.49 5.179,-0.277 8.759,0.77"
           style="fill:#f7f00f;fill-opacity:1;fill-rule:nonzero;stroke:none"
           id="path27285"
           inkscape:connector-curvature="0" /><path
           d="m 25.119,271.407 c -1.783,-0.258 -4.721,-2.481 -6.962,-3.942 -0.232,-0.151 -0.46,-0.296 -0.673,-0.431 -0.382,-0.221 -1.357,-0.737 -2.09,-1.108 3.571,-0.863 6.698,2.796 4.266,-1.065 1.874,1.035 3.791,1.837 5.311,2.604 0.45,0.228 0.869,0.45 1.235,0.675 -0.577,-0.361 -0.78,0.508 0,1.095 1.639,1.211 4.741,2.453 5.457,1.082 -0.057,0.109 -3.407,-1.661 -3.271,-2.177 1.912,-0.984 3.451,2.772 4.226,0.489 -3.577,-0.395 -4.711,-3.233 -7.499,-4.426 4.469,-1.131 8.923,3.366 11.998,0 -2.224,0.936 -6.774,-0.942 -3.275,-2.171 0.012,1.422 3.022,1.383 3.275,0 -2.981,0.788 -2.198,-2.173 -4.363,-2.188 -2.133,2.656 -10.584,1.073 -10.73,-1.628 -0.965,-0.525 -1.787,-1.177 -2.364,-2.073 2.052,-0.732 2.894,-0.802 3.296,-0.621 -0.005,-0.012 -0.01,-0.023 -0.015,-0.033 1.99,0.086 3.112,0.405 3.778,0.817 0.183,-0.046 0.378,-0.099 0.584,-0.163 0.421,1.518 0.862,2.124 1.342,2.417 0.777,-0.156 2.763,-0.227 4.109,0.191 -4.486,-4.608 4.353,-2.04 5.447,-4.358 -1.579,-0.588 -5.627,1.279 -5.447,-1.094 4.162,-1.887 7.173,1.863 7.631,-3.272 -3.545,-0.085 -6.709,-0.553 -8.722,-2.175 4.063,-1.831 6.855,1.692 10.9,2.175 -0.088,0 2.773,-1.204 4.362,-1.084 6.886,0.503 11.409,1.203 17.455,-2.18 -4.897,-2.446 -9.671,4.061 -11.995,-2.183 4.365,1.426 7.172,-1.882 9.816,-2.184 2.257,-0.246 4.819,2.16 6.546,0 -8.888,-4.042 -13.181,3.966 -22.901,0 -3.033,1.634 1.887,4.457 -1.098,5.456 -1.68,-2.287 -6.472,-0.396 -2.185,-3.272 -3.378,-0.124 -3.111,3.422 -7.632,2.183 -1.295,-4.571 4.598,-1.952 5.454,-4.367 -4.397,1.146 -1.362,-2.377 -3.268,-3.268 -3.09,-1.46 -6.831,1.737 -11.998,-1.094 6.232,-0.512 6.378,-0.347 10.898,-2.174 -0.53,3.59 6.299,4.561 6.546,1.084 -1.279,-0.168 -3.084,0.184 -3.27,-1.084 2.067,-2.064 6.36,3.831 8.729,-1.091 -2.062,-0.246 -2.409,1.219 -4.359,1.091 -0.906,-3.981 4.437,-2.322 5.446,-3.283 0.678,-0.629 -2.009,-2.139 0,-2.179 5.195,5.052 6.591,-3.01 11.998,0 -0.513,-4.516 5.105,-2.894 7.64,-4.367 0.119,1.332 0.315,2.587 2.179,2.183 1.488,-0.151 3.404,-2.03 5.064,-2.757 h 2.045 c 0.188,0.137 0.364,0.323 0.527,0.574 -1.877,-0.052 -2.809,0.847 -3.273,2.183 7.04,1.441 11.319,0.42 15.686,-2.757 h 318.484 c 0.275,0.87 0.501,1.781 0.655,2.757 6.604,2.484 11.735,6.442 19.63,7.646 0.905,-3.45 1.045,-6.919 0.807,-10.403 h 89.353 c 0.017,1.23 0.041,2.412 0.357,3.854 1.731,7.729 5.759,14.365 6.549,21.814 3.097,0.917 6.615,2.063 7.63,1.09 0.898,-0.851 1,-0.327 2.186,-1.09 0.969,-0.623 2.728,-2.966 3.27,-3.273 1.872,-1.075 4.537,-0.972 6.551,-2.185 1.72,-1.035 3.066,-3.764 4.357,-4.361 2.902,-1.326 6.869,-1.057 9.81,-2.178 5.287,-2.01 8.443,-5.804 13.091,-4.359 -3.09,1.631 -5.039,4.405 -9.813,4.359 -3.79,4.013 -7.417,8.273 -11.997,11.997 -0.991,0.795 -4.001,1.029 -5.448,2.174 -1.603,1.263 -3.102,3.377 -3.283,5.452 4.076,-0.698 5.354,-4.813 9.822,-2.177 1.285,-2.054 5.654,-6.62 7.628,-4.359 -1.822,1.768 -5.022,3.293 -7.628,5.452 -2.48,2.047 -6.287,4.303 -5.452,6.536 3.535,-3.028 9.302,-9.561 13.08,-8.714 -3.932,1.187 -1.936,3.286 -3.268,4.355 0.661,-0.524 -2.496,-1.029 -2.179,1.094 6.125,-0.187 -3.788,3.688 0,4.361 1.282,-0.16 2.474,-1.941 3.268,0 -1.149,0.87 -3.014,1.029 -3.886,2.166 h 2.224 c 0.366,-0.544 0.756,-1.064 1.662,-1.071 0.114,0.383 0.162,0.735 0.182,1.071 h 1.867 c -0.657,0.638 -1.346,1.048 -2.034,1.367 -0.056,0.173 -0.116,0.346 -0.199,0.509 h -1.01 c -1.197,0.467 -2.317,0.896 -3.161,2.066 0.061,0.346 0.097,0.856 0.096,1.45 H 25.153 c 0.108,-0.363 0.117,-0.828 -0.034,-1.45"
           style="fill:#f7f00f;fill-opacity:1;fill-rule:nonzero;stroke:none"
           id="path27287"
           inkscape:connector-curvature="0" /><path
           d="m 15.394,265.926 c -0.029,0.011 -0.063,0.014 -0.094,0.024 -1.307,-0.713 -0.782,-0.47 0.094,-0.024"
           style="fill:#f7f00f;fill-opacity:1;fill-rule:nonzero;stroke:none"
           id="path27289"
           inkscape:connector-curvature="0" /></g></g></g></svg>